<mxfile host="app.diagrams.net" modified="2022-09-03T16:05:33.004Z" agent="5.0 (Windows NT 10.0; Win64; x64) AppleWebKit/537.36 (KHTML, like Gecko) Chrome/104.0.5112.102 Safari/537.36 Edg/104.0.1293.70" etag="6HSH28qzJZIAVjtwjPAf" version="20.2.7" type="github">
  <diagram id="t0xJY2-m7fgs8rFiguxV" name="Page-1">
    <mxGraphModel dx="782" dy="460" grid="1" gridSize="10" guides="1" tooltips="1" connect="1" arrows="1" fold="1" page="1" pageScale="1" pageWidth="850" pageHeight="1100" math="0" shadow="0">
      <root>
        <mxCell id="0" />
        <mxCell id="1" parent="0" />
        <mxCell id="C5GYQRvBZ-J8fAz-pRWI-1" value="User" style="shape=umlActor;html=1;verticalLabelPosition=bottom;verticalAlign=top;align=center;" parent="1" vertex="1">
          <mxGeometry x="80" y="470" width="30" height="60" as="geometry" />
        </mxCell>
        <mxCell id="C5GYQRvBZ-J8fAz-pRWI-5" value="view menu" style="ellipse;whiteSpace=wrap;html=1;" parent="1" vertex="1">
          <mxGeometry x="260" y="400" width="120" height="70" as="geometry" />
        </mxCell>
        <mxCell id="C5GYQRvBZ-J8fAz-pRWI-6" value="Add items" style="ellipse;whiteSpace=wrap;html=1;" parent="1" vertex="1">
          <mxGeometry x="270" y="520" width="110" height="70" as="geometry" />
        </mxCell>
        <mxCell id="ygkbj4HKHxpMOCmwrWFn-1" value="Update Restaurant" style="ellipse;whiteSpace=wrap;html=1;" parent="1" vertex="1">
          <mxGeometry x="480" y="335" width="140" height="70" as="geometry" />
        </mxCell>
        <mxCell id="ygkbj4HKHxpMOCmwrWFn-2" value="View total cost" style="ellipse;whiteSpace=wrap;html=1;" parent="1" vertex="1">
          <mxGeometry x="270" y="650" width="110" height="70" as="geometry" />
        </mxCell>
        <mxCell id="X53dpiTO23FYyviGrFCl-1" value="Admin" style="shape=umlActor;html=1;verticalLabelPosition=bottom;verticalAlign=top;align=center;" parent="1" vertex="1">
          <mxGeometry x="710" y="470" width="30" height="60" as="geometry" />
        </mxCell>
        <mxCell id="X53dpiTO23FYyviGrFCl-6" value="Add Restaurant" style="ellipse;whiteSpace=wrap;html=1;" parent="1" vertex="1">
          <mxGeometry x="480" y="240" width="140" height="70" as="geometry" />
        </mxCell>
        <mxCell id="X53dpiTO23FYyviGrFCl-7" value="&lt;br&gt;extension points&lt;br&gt;If No restuarants found" style="html=1;shape=mxgraph.sysml.useCaseExtPt;whiteSpace=wrap;align=center;" parent="1" vertex="1">
          <mxGeometry x="220" y="150" width="160" height="80" as="geometry" />
        </mxCell>
        <mxCell id="X53dpiTO23FYyviGrFCl-8" value="Search Restuarant" style="resizable=0;html=1;verticalAlign=middle;align=center;labelBackgroundColor=none;fontStyle=1;" parent="X53dpiTO23FYyviGrFCl-7" connectable="0" vertex="1">
          <mxGeometry x="80" y="17" as="geometry">
            <mxPoint x="-9" y="1" as="offset" />
          </mxGeometry>
        </mxCell>
        <mxCell id="X53dpiTO23FYyviGrFCl-9" value="No search results" style="ellipse;whiteSpace=wrap;html=1;" parent="1" vertex="1">
          <mxGeometry x="470" y="155" width="140" height="70" as="geometry" />
        </mxCell>
        <mxCell id="X53dpiTO23FYyviGrFCl-10" value="&amp;lt;&amp;lt;extend&amp;gt;&amp;gt;" style="edgeStyle=none;html=1;startArrow=open;endArrow=none;startSize=12;verticalAlign=bottom;dashed=1;labelBackgroundColor=none;rounded=0;exitX=1;exitY=0.5;exitDx=0;exitDy=0;exitPerimeter=0;" parent="1" source="X53dpiTO23FYyviGrFCl-7" edge="1">
          <mxGeometry width="160" relative="1" as="geometry">
            <mxPoint x="320" y="189.5" as="sourcePoint" />
            <mxPoint x="470" y="190" as="targetPoint" />
          </mxGeometry>
        </mxCell>
        <object placeholders="1" c4Name="Restuarant Management system" c4Type="SystemScopeBoundary" c4Application="Restaurant Finder" label="&lt;font style=&quot;font-size: 16px&quot;&gt;&lt;b&gt;&lt;div style=&quot;text-align: left&quot;&gt;%c4Name%&lt;/div&gt;&lt;/b&gt;&lt;/font&gt;&lt;div style=&quot;text-align: left&quot;&gt;[%c4Application%]&lt;/div&gt;" id="X53dpiTO23FYyviGrFCl-13">
          <mxCell style="rounded=1;fontSize=11;whiteSpace=wrap;html=1;dashed=1;arcSize=20;fillColor=none;strokeColor=#666666;fontColor=#333333;labelBackgroundColor=none;align=left;verticalAlign=bottom;labelBorderColor=none;spacingTop=0;spacing=10;dashPattern=8 4;metaEdit=1;rotatable=0;perimeter=rectanglePerimeter;noLabel=0;labelPadding=0;allowArrows=0;connectable=0;expand=0;recursiveResize=0;editable=1;pointerEvents=0;absoluteArcSize=1;points=[[0.25,0,0],[0.5,0,0],[0.75,0,0],[1,0.25,0],[1,0.5,0],[1,0.75,0],[0.75,1,0],[0.5,1,0],[0.25,1,0],[0,0.75,0],[0,0.5,0],[0,0.25,0]];" parent="1" vertex="1">
            <mxGeometry x="210" y="120" width="430" height="700" as="geometry" />
          </mxCell>
        </object>
        <mxCell id="X53dpiTO23FYyviGrFCl-14" value="" style="edgeStyle=none;html=1;endArrow=none;verticalAlign=bottom;rounded=0;exitX=0.5;exitY=0.5;exitDx=0;exitDy=0;exitPerimeter=0;entryX=0;entryY=0.5;entryDx=0;entryDy=0;entryPerimeter=0;" parent="1" source="C5GYQRvBZ-J8fAz-pRWI-1" target="X53dpiTO23FYyviGrFCl-7" edge="1">
          <mxGeometry width="160" relative="1" as="geometry">
            <mxPoint x="340" y="360" as="sourcePoint" />
            <mxPoint x="220" y="200" as="targetPoint" />
          </mxGeometry>
        </mxCell>
        <mxCell id="X53dpiTO23FYyviGrFCl-15" value="" style="edgeStyle=none;html=1;endArrow=none;verticalAlign=bottom;rounded=0;exitX=0.5;exitY=0.5;exitDx=0;exitDy=0;exitPerimeter=0;entryX=0;entryY=0.5;entryDx=0;entryDy=0;" parent="1" source="C5GYQRvBZ-J8fAz-pRWI-1" target="C5GYQRvBZ-J8fAz-pRWI-5" edge="1">
          <mxGeometry width="160" relative="1" as="geometry">
            <mxPoint x="340" y="360" as="sourcePoint" />
            <mxPoint x="500" y="360" as="targetPoint" />
          </mxGeometry>
        </mxCell>
        <mxCell id="X53dpiTO23FYyviGrFCl-16" value="" style="edgeStyle=none;html=1;endArrow=none;verticalAlign=bottom;rounded=0;entryX=0.5;entryY=0.5;entryDx=0;entryDy=0;entryPerimeter=0;" parent="1" source="ygkbj4HKHxpMOCmwrWFn-1" target="X53dpiTO23FYyviGrFCl-1" edge="1">
          <mxGeometry width="160" relative="1" as="geometry">
            <mxPoint x="340" y="360" as="sourcePoint" />
            <mxPoint x="500" y="360" as="targetPoint" />
          </mxGeometry>
        </mxCell>
        <mxCell id="X53dpiTO23FYyviGrFCl-17" value="" style="edgeStyle=none;html=1;endArrow=none;verticalAlign=bottom;rounded=0;exitX=0.5;exitY=0.5;exitDx=0;exitDy=0;exitPerimeter=0;entryX=0;entryY=0.5;entryDx=0;entryDy=0;" parent="1" source="C5GYQRvBZ-J8fAz-pRWI-1" target="C5GYQRvBZ-J8fAz-pRWI-6" edge="1">
          <mxGeometry width="160" relative="1" as="geometry">
            <mxPoint x="340" y="360" as="sourcePoint" />
            <mxPoint x="500" y="360" as="targetPoint" />
          </mxGeometry>
        </mxCell>
        <mxCell id="X53dpiTO23FYyviGrFCl-18" value="" style="edgeStyle=none;html=1;endArrow=none;verticalAlign=bottom;rounded=0;exitX=0.5;exitY=0.5;exitDx=0;exitDy=0;exitPerimeter=0;entryX=0;entryY=0;entryDx=0;entryDy=0;" parent="1" source="C5GYQRvBZ-J8fAz-pRWI-1" target="ygkbj4HKHxpMOCmwrWFn-2" edge="1">
          <mxGeometry width="160" relative="1" as="geometry">
            <mxPoint x="340" y="360" as="sourcePoint" />
            <mxPoint x="500" y="360" as="targetPoint" />
          </mxGeometry>
        </mxCell>
        <mxCell id="X53dpiTO23FYyviGrFCl-20" value="" style="edgeStyle=none;html=1;endArrow=none;verticalAlign=bottom;rounded=0;entryX=0.5;entryY=0.5;entryDx=0;entryDy=0;entryPerimeter=0;exitX=1;exitY=0.5;exitDx=0;exitDy=0;" parent="1" source="X53dpiTO23FYyviGrFCl-6" target="X53dpiTO23FYyviGrFCl-1" edge="1">
          <mxGeometry width="160" relative="1" as="geometry">
            <mxPoint x="340" y="360" as="sourcePoint" />
            <mxPoint x="500" y="360" as="targetPoint" />
          </mxGeometry>
        </mxCell>
        <mxCell id="sQvG1YLRB0IlYhNxpF2X-1" value="View Restaurant" style="ellipse;whiteSpace=wrap;html=1;" vertex="1" parent="1">
          <mxGeometry x="250" y="255" width="120" height="80" as="geometry" />
        </mxCell>
        <mxCell id="sQvG1YLRB0IlYhNxpF2X-2" value="" style="edgeStyle=none;html=1;endArrow=none;verticalAlign=bottom;rounded=0;exitX=0.5;exitY=0.5;exitDx=0;exitDy=0;exitPerimeter=0;entryX=0;entryY=0.5;entryDx=0;entryDy=0;" edge="1" parent="1" source="C5GYQRvBZ-J8fAz-pRWI-1" target="sQvG1YLRB0IlYhNxpF2X-1">
          <mxGeometry width="160" relative="1" as="geometry">
            <mxPoint x="320" y="350" as="sourcePoint" />
            <mxPoint x="480" y="350" as="targetPoint" />
          </mxGeometry>
        </mxCell>
        <mxCell id="sQvG1YLRB0IlYhNxpF2X-3" value="Delete Restaurant" style="ellipse;whiteSpace=wrap;html=1;" vertex="1" parent="1">
          <mxGeometry x="480" y="430" width="140" height="70" as="geometry" />
        </mxCell>
        <mxCell id="sQvG1YLRB0IlYhNxpF2X-5" value="Update Menu" style="ellipse;whiteSpace=wrap;html=1;" vertex="1" parent="1">
          <mxGeometry x="480" y="560" width="140" height="70" as="geometry" />
        </mxCell>
        <mxCell id="sQvG1YLRB0IlYhNxpF2X-6" value="" style="edgeStyle=none;html=1;endArrow=none;verticalAlign=bottom;rounded=0;entryX=0.5;entryY=0.5;entryDx=0;entryDy=0;entryPerimeter=0;exitX=0.938;exitY=0.733;exitDx=0;exitDy=0;exitPerimeter=0;" edge="1" parent="1" source="sQvG1YLRB0IlYhNxpF2X-3" target="X53dpiTO23FYyviGrFCl-1">
          <mxGeometry width="160" relative="1" as="geometry">
            <mxPoint x="320" y="490" as="sourcePoint" />
            <mxPoint x="480" y="490" as="targetPoint" />
          </mxGeometry>
        </mxCell>
        <mxCell id="sQvG1YLRB0IlYhNxpF2X-7" value="" style="edgeStyle=none;html=1;endArrow=none;verticalAlign=bottom;rounded=0;entryX=0.5;entryY=0.5;entryDx=0;entryDy=0;entryPerimeter=0;exitX=0.729;exitY=0.057;exitDx=0;exitDy=0;exitPerimeter=0;" edge="1" parent="1" source="sQvG1YLRB0IlYhNxpF2X-5" target="X53dpiTO23FYyviGrFCl-1">
          <mxGeometry width="160" relative="1" as="geometry">
            <mxPoint x="320" y="490" as="sourcePoint" />
            <mxPoint x="480" y="490" as="targetPoint" />
          </mxGeometry>
        </mxCell>
        <mxCell id="sQvG1YLRB0IlYhNxpF2X-8" value="&amp;lt;&amp;lt;include&amp;gt;&amp;gt;" style="html=1;verticalAlign=bottom;labelBackgroundColor=none;endArrow=open;endFill=0;dashed=1;rounded=0;exitX=0.5;exitY=0;exitDx=0;exitDy=0;entryX=0.589;entryY=1;entryDx=0;entryDy=0;entryPerimeter=0;" edge="1" parent="1" source="C5GYQRvBZ-J8fAz-pRWI-5" target="sQvG1YLRB0IlYhNxpF2X-1">
          <mxGeometry x="0.1479" y="-37" width="160" relative="1" as="geometry">
            <mxPoint x="320" y="410" as="sourcePoint" />
            <mxPoint x="480" y="410" as="targetPoint" />
            <mxPoint as="offset" />
          </mxGeometry>
        </mxCell>
        <mxCell id="sQvG1YLRB0IlYhNxpF2X-9" value="&amp;lt;&amp;lt;include&amp;gt;&amp;gt;" style="html=1;verticalAlign=bottom;labelBackgroundColor=none;endArrow=open;endFill=0;dashed=1;rounded=0;exitX=0.442;exitY=0.019;exitDx=0;exitDy=0;exitPerimeter=0;entryX=0.5;entryY=1;entryDx=0;entryDy=0;" edge="1" parent="1" source="C5GYQRvBZ-J8fAz-pRWI-6" target="C5GYQRvBZ-J8fAz-pRWI-5">
          <mxGeometry x="-0.1262" y="-41" width="160" relative="1" as="geometry">
            <mxPoint x="320" y="410" as="sourcePoint" />
            <mxPoint x="480" y="410" as="targetPoint" />
            <mxPoint as="offset" />
          </mxGeometry>
        </mxCell>
        <mxCell id="sQvG1YLRB0IlYhNxpF2X-10" value="&amp;lt;&amp;lt;include&amp;gt;&amp;gt;" style="html=1;verticalAlign=bottom;labelBackgroundColor=none;endArrow=open;endFill=0;dashed=1;rounded=0;exitX=0.5;exitY=0;exitDx=0;exitDy=0;entryX=0.5;entryY=1;entryDx=0;entryDy=0;" edge="1" parent="1" source="ygkbj4HKHxpMOCmwrWFn-2" target="C5GYQRvBZ-J8fAz-pRWI-6">
          <mxGeometry x="-0.3333" y="-35" width="160" relative="1" as="geometry">
            <mxPoint x="260" y="620" as="sourcePoint" />
            <mxPoint x="420" y="620" as="targetPoint" />
            <mxPoint as="offset" />
          </mxGeometry>
        </mxCell>
        <mxCell id="sQvG1YLRB0IlYhNxpF2X-11" value="&amp;lt;&amp;lt;extend&amp;gt;&amp;gt;" style="html=1;verticalAlign=bottom;labelBackgroundColor=none;endArrow=open;endFill=0;dashed=1;rounded=0;entryX=1;entryY=0.5;entryDx=0;entryDy=0;" edge="1" parent="1" source="ygkbj4HKHxpMOCmwrWFn-1" target="sQvG1YLRB0IlYhNxpF2X-1">
          <mxGeometry x="-0.2424" y="-17" width="160" relative="1" as="geometry">
            <mxPoint x="260" y="400" as="sourcePoint" />
            <mxPoint x="420" y="400" as="targetPoint" />
            <mxPoint as="offset" />
          </mxGeometry>
        </mxCell>
        <mxCell id="sQvG1YLRB0IlYhNxpF2X-12" value="&amp;lt;&amp;lt;extend&amp;gt;&amp;gt;" style="html=1;verticalAlign=bottom;labelBackgroundColor=none;endArrow=open;endFill=0;dashed=1;rounded=0;entryX=0.972;entryY=0.679;entryDx=0;entryDy=0;entryPerimeter=0;" edge="1" parent="1" source="sQvG1YLRB0IlYhNxpF2X-3" target="sQvG1YLRB0IlYhNxpF2X-1">
          <mxGeometry x="-0.1036" y="28" width="160" relative="1" as="geometry">
            <mxPoint x="260" y="400" as="sourcePoint" />
            <mxPoint x="420" y="400" as="targetPoint" />
            <mxPoint as="offset" />
          </mxGeometry>
        </mxCell>
        <mxCell id="sQvG1YLRB0IlYhNxpF2X-13" value="&amp;lt;&amp;lt;extend&amp;gt;&amp;gt;" style="html=1;verticalAlign=bottom;labelBackgroundColor=none;endArrow=open;endFill=0;dashed=1;rounded=0;entryX=1;entryY=0.5;entryDx=0;entryDy=0;" edge="1" parent="1" source="sQvG1YLRB0IlYhNxpF2X-5" target="C5GYQRvBZ-J8fAz-pRWI-5">
          <mxGeometry x="-0.1553" y="28" width="160" relative="1" as="geometry">
            <mxPoint x="260" y="520" as="sourcePoint" />
            <mxPoint x="420" y="520" as="targetPoint" />
            <mxPoint as="offset" />
          </mxGeometry>
        </mxCell>
      </root>
    </mxGraphModel>
  </diagram>
</mxfile>
